<svg width="21" height="20" viewBox="0 0 21 20" fill="none" xmlns="http://www.w3.org/2000/svg">
<path d="M1.394 11.486H0.769V12.111H1.394V11.486ZM8.956 11.486H9.581V10.861H8.956V11.486ZM8.956 19.352H8.331V19.977H8.956V19.352ZM11.882 19.352V19.977H12.507V19.352H11.882ZM11.882 11.486V10.861H11.257V11.486H11.882ZM19.444 11.486V12.111H20.069V11.486H19.444ZM19.444 8.712H20.069V8.087H19.444V8.712ZM11.882 8.712H11.257V9.337H11.882V8.712ZM11.882 0.883999H12.507V0.258999H11.882V0.883999ZM8.956 0.883999V0.258999H8.331V0.883999H8.956ZM8.956 8.712V9.337H9.581V8.712H8.956ZM1.394 8.712V8.087H0.769V8.712H1.394ZM1.394 12.111H8.956V10.861H1.394V12.111ZM8.331 11.486V19.352H9.581V11.486H8.331ZM8.956 19.977H11.882V18.727H8.956V19.977ZM12.507 19.352V11.486H11.257V19.352H12.507ZM11.882 12.111H19.444V10.861H11.882V12.111ZM20.069 11.486V8.712H18.819V11.486H20.069ZM19.444 8.087H11.882V9.337H19.444V8.087ZM12.507 8.712V0.883999H11.257V8.712H12.507ZM11.882 0.258999H8.956V1.509H11.882V0.258999ZM8.331 0.883999V8.712H9.581V0.883999H8.331ZM8.956 8.087H1.394V9.337H8.956V8.087ZM0.769 8.712V11.486H2.019V8.712H0.769Z" fill="black"/>
</svg>
