<svg width="448" height="70" viewBox="0 0 448 70" fill="none" xmlns="http://www.w3.org/2000/svg">
<g clip-path="url(#clip0_1379_1880)">
<path d="M44.3633 1.29565L69.6075 68.7255H51.4062L46.6723 55.6693H21.9305L17.1966 68.7255H0L25.2539 1.29565H44.3633ZM26.8576 42.0784H41.7452L34.4994 22.1651H34.0937L26.8576 42.0784Z" fill="black"/>
<path d="M151.34 68.7255V16.2949H130.916V1.29565H188.766V16.2744H168.333V68.705L151.34 68.7255Z" fill="black"/>
<path d="M219.517 0.0513659C238.839 -0.0514392 249.659 13.416 250.5 30.677H234.076C233.11 23.1825 229.246 16.2226 219.392 16.2226C210.04 16.2226 204.61 23.604 204.61 35.0565C204.61 46.509 210.04 53.9007 219.392 53.9007C229.255 53.9007 233.072 46.9408 234.076 39.4463H250.5C249.534 56.7381 239.052 70.0616 219.459 70.0616C200.949 70.0616 186.969 55.8231 186.969 35.0565C186.969 14.2899 201.007 0.113049 219.517 0.0513659Z" fill="black"/>
<path d="M253.36 68.7255V1.29565H270.45V27.3053H295.704V1.29565H312.804V68.7255H295.704V42.0784H270.45V68.7255H253.36Z" fill="black"/>
<path d="M334.435 1.29565V68.7255H317.345V1.29565H334.435Z" fill="black"/>
<path d="M356.066 1.29565V53.7263H386.15V68.7255H338.966V1.29565H356.066Z" fill="black"/>
<path d="M388.952 1.29565H414.003C435.015 1.29565 448 13.9201 448 35.0054C448 56.0908 435.015 68.7255 414.003 68.7255H388.952V1.29565ZM412.785 54.3842C423.857 54.3842 430.388 47.3215 430.388 34.9026C430.388 22.6997 423.857 15.637 412.785 15.637H406.023V54.3842H412.785Z" fill="black"/>
<path d="M129.854 68.7253L116.57 44.2576C124.782 41.0604 128.955 34.2753 128.955 24.9508V23.0387C128.955 22.9256 128.955 22.8331 128.955 22.72C128.955 9.55064 120.801 1.30566 104.407 1.30566H72.4189V68.7458H89.2098V46.3137H99.4987L111.643 68.7253H129.854ZM89.2098 15.8423H101.392C108.628 15.8423 112.251 18.7414 112.251 24.1901C112.251 30.3584 108.628 32.322 101.392 32.322H89.2098V15.8423Z" fill="black"/>
</g>
<defs>
<clipPath id="clip0_1379_1880">
<rect width="448" height="70" fill="white"/>
</clipPath>
</defs>
</svg>
