<svg width="16" height="15" viewBox="0 0 16 15" fill="none" xmlns="http://www.w3.org/2000/svg">
<path d="M0.583252 11.7817V14.75H3.71651L12.9575 5.99536L9.82427 3.02701L0.583252 11.7817ZM15.3806 3.69983C15.458 3.6266 15.5195 3.53962 15.5614 3.44386C15.6033 3.34811 15.6249 3.24545 15.6249 3.14178C15.6249 3.03812 15.6033 2.93546 15.5614 2.83971C15.5195 2.74395 15.458 2.65697 15.3806 2.58374L13.4254 0.731487C13.3481 0.658106 13.2563 0.599889 13.1552 0.560168C13.0542 0.520446 12.9458 0.5 12.8364 0.5C12.7269 0.5 12.6186 0.520446 12.5175 0.560168C12.4164 0.599889 12.3246 0.658106 12.2473 0.731487L10.7183 2.18004L13.8515 5.14839L15.3806 3.69983V3.69983Z" fill="#A7A7A7"/>
</svg>
