<svg width="16" height="16" viewBox="0 0 16 16" fill="none" xmlns="http://www.w3.org/2000/svg">
<path d="M14.8714 11.7316L12.6844 13.8745C12.5135 14.0419 12.2364 14.0418 12.0657 13.8745L9.87868 11.7316C9.60333 11.4619 9.79941 11 10.188 11L11.5 11L11.5 2.42857C11.5 2.19187 11.6959 2 11.9375 2L12.8125 2C13.0541 2 13.25 2.19187 13.25 2.42857L13.25 11L14.5621 11C14.9515 11 15.1462 11.4624 14.8714 11.7316ZM8.4375 12.2857L1.4375 12.2857C1.19586 12.2857 1 12.4776 1 12.7143L1 13.5714C1 13.8081 1.19586 14 1.4375 14L8.4375 14C8.67914 14 8.875 13.8081 8.875 13.5714L8.875 12.7143C8.875 12.4776 8.67914 12.2857 8.4375 12.2857ZM8.875 9.28571L8.875 10.1428C8.875 10.3796 8.67914 10.5714 8.4375 10.5714L3.1875 10.5714C2.94586 10.5714 2.75 10.3796 2.75 10.1428L2.75 9.28571C2.75 9.049 2.94586 8.85714 3.1875 8.85714L8.4375 8.85714C8.67914 8.85714 8.875 9.049 8.875 9.28571ZM8.875 2.42857L8.875 3.28571C8.875 3.52242 8.67914 3.71428 8.4375 3.71428L6.6875 3.71428C6.44586 3.71428 6.25 3.52242 6.25 3.28571L6.25 2.42857C6.25 2.19187 6.44586 2 6.6875 2L8.4375 2C8.67914 2 8.875 2.19187 8.875 2.42857ZM8.875 5.85714L8.875 6.71428C8.875 6.95099 8.67914 7.14285 8.4375 7.14285L4.9375 7.14285C4.69586 7.14285 4.5 6.95099 4.5 6.71428L4.5 5.85714C4.5 5.62043 4.69586 5.42857 4.9375 5.42857L8.4375 5.42857C8.67914 5.42857 8.875 5.62043 8.875 5.85714Z" fill="#FFDD00"/>
</svg>
