<svg width="24" height="24" viewBox="0 0 24 24" fill="none" xmlns="http://www.w3.org/2000/svg">
<path fill-rule="evenodd" clip-rule="evenodd" d="M11.5 6C7.63636 6 4.33682 8.488 3 12C4.33682 15.512 7.63636 18 11.5 18C15.3636 18 18.6632 15.512 20 12C18.6632 8.488 15.3636 6 11.5 6ZM11.5 16C9.36727 16 7.63636 14.208 7.63636 12C7.63636 9.792 9.36727 8 11.5 8C13.6327 8 15.3636 9.792 15.3636 12C15.3636 14.208 13.6327 16 11.5 16ZM9.18181 12C9.18181 10.672 10.2173 9.59998 11.5 9.59998C12.7827 9.59998 13.8182 10.672 13.8182 12C13.8182 13.328 12.7827 14.4 11.5 14.4C10.2173 14.4 9.18181 13.328 9.18181 12Z" fill="#FFDD00"/>
</svg>
